<svg xmlns="http://www.w3.org/2000/svg" width="496" height="496" viewBox="0 0 131.233 131.233">
    <path d="M64 0C28.654 0 0 28.654 0 64v368c0 35.346 28.654 64 64 64h368c35.346 0 64-28.654 64-64V64c0-35.346-28.654-64-64-64Zm0 32h368c17.673 0 32 14.327 32 32v368c0 17.673-14.327 32-32 32H64c-17.673 0-32-14.327-32-32V64c0-17.673 14.327-32 32-32" style="fill:#0671d8;fill-opacity:1;stroke:none;stroke-width:2" transform="scale(.26458)"/>
    <path d="M224 336v32h176v-32zm0-208v172h36V160h36v140h36V160h24c6.627 0 12 5.373 12 12v128h36V168c0-22.091-17.909-40-40-40zm-92 0c-22.091 0-40 17.909-40 40v92c0 22.091 17.909 40 40 40h32v8c0 15.464-14.327 28-32 28h-20v32h20c37.555 0 68-26.863 68-60V128Zm8 32h24v108h-24c-6.627 0-12-5.373-12-12v-84c0-6.627 5.373-12 12-12" style="fill:#0671d8;fill-opacity:1;stroke:none;stroke-width:2" transform="scale(.26458)"/>
</svg>
